<?xml version="1.0" encoding="UTF-8" standalone="no"?>
<!-- Created with Inkscape (http://www.inkscape.org/) -->

<svg
   xmlns:dc="http://purl.org/dc/elements/1.1/"
   xmlns:cc="http://creativecommons.org/ns#"
   xmlns:rdf="http://www.w3.org/1999/02/22-rdf-syntax-ns#"
   xmlns:svg="http://www.w3.org/2000/svg"
   xmlns="http://www.w3.org/2000/svg"
   xmlns:sodipodi="http://sodipodi.sourceforge.net/DTD/sodipodi-0.dtd"
   xmlns:inkscape="http://www.inkscape.org/namespaces/inkscape"
   width="513.33472"
   height="317.08444"
   id="svg2"
   version="1.1"
   inkscape:version="0.48.5 r10040"
   sodipodi:docname="innovative-projects.svg"
   inkscape:export-filename="D:\userdata\mjaworsk\Desktop\innovative-projects.png"
   inkscape:export-xdpi="90"
   inkscape:export-ydpi="90">
  <defs
     id="defs4" />
  <sodipodi:namedview
     id="base"
     pagecolor="#ffffff"
     bordercolor="#666666"
     borderopacity="1.0"
     inkscape:pageopacity="0.0"
     inkscape:pageshadow="2"
     inkscape:zoom="0.87484427"
     inkscape:cx="52.204342"
     inkscape:cy="196.7716"
     inkscape:document-units="px"
     inkscape:current-layer="layer3"
     showgrid="false"
     inkscape:window-width="1600"
     inkscape:window-height="838"
     inkscape:window-x="-8"
     inkscape:window-y="-8"
     inkscape:window-maximized="1"
     showguides="true"
     inkscape:guide-bbox="true"
     fit-margin-top="20"
     fit-margin-left="20"
     fit-margin-bottom="20"
     fit-margin-right="20">
    <inkscape:grid
       type="xygrid"
       id="grid3063"
       empspacing="5"
       visible="true"
       enabled="true"
       snapvisiblegridlinesonly="true"
       originx="-447.40426px"
       originy="-1061.5053px" />
  </sodipodi:namedview>
  <metadata
     id="metadata7">
    <rdf:RDF>
      <cc:Work
         rdf:about="">
        <dc:format>image/svg+xml</dc:format>
        <dc:type
           rdf:resource="http://purl.org/dc/dcmitype/StillImage" />
        <dc:title></dc:title>
      </cc:Work>
    </rdf:RDF>
  </metadata>
  <g
     inkscape:groupmode="layer"
     id="layer5"
     inkscape:label="by nokia"
     style="display:inline"
     transform="translate(-48.407698,-502.36218)">
    <g
       style="display:inline"
       id="g3"
       transform="matrix(0.09478,0,0,0.09478,431.97614,754.9736)">
      <g
         id="g5">
        <polyline
           style="fill:#1c4598"
           id="polyline7"
           points="38.519,133.175 0,133.175 0,2.181 66.62,2.181 143.047,99.975 143.047,2.181 181.567,2.181     181.567,133.175 116.298,133.175 38.519,33.711 38.519,133.175   " />
        <path
           id="path9"
           style="fill:#1c4598"
           d="m 365.872,92.673 c 0,18.206 -3.219,24.483 -8.551,30.506 -8.173,8.965 -20.059,11.66 -42.972,11.66 l -65.771,0 c -22.913,0 -34.814,-2.695 -42.98,-11.66 -5.324,-6.022 -8.551,-12.3 -8.551,-30.506 l 0,-50.499 c 0,-18.206 3.227,-24.476 8.551,-30.506 C 213.765,2.696 225.666,0 248.579,0 l 65.771,0 c 22.913,0 34.799,2.696 42.972,11.668 5.332,6.03 8.551,12.3 8.551,30.506 l 0,50.499 m -53.144,8.972 c 8.797,0 11.899,-0.515 14.006,-2.434 1.977,-1.794 2.848,-4.104 2.848,-11.798 l 0,-39.987 c 0,-7.692 -0.871,-9.989 -2.848,-11.79 -2.106,-1.925 -5.209,-2.434 -14.006,-2.434 l -62.538,0 c -8.797,0 -11.899,0.509 -13.999,2.434 -1.983,1.801 -2.849,4.098 -2.849,11.79 l 0,39.987 c 0,7.693 0.865,10.004 2.849,11.798 2.1,1.919 5.202,2.434 13.999,2.434 l 62.538,0 0,0 z"
           inkscape:connector-curvature="0" />
        <path
           id="path11"
           style="fill:#1c4598"
           d="m 421.849,2.181 0,130.994 -40.247,0 0,-130.994 40.247,0 m 68.001,0 53.136,0 -71.712,61.272 80.881,69.722 -56.856,0 -73.449,-68.319 68,-62.675 z"
           inkscape:connector-curvature="0" />
        <rect
           id="rect13"
           style="fill:#1c4598"
           y="2.181"
           x="559.578"
           height="130.994"
           width="40.264" />
        <path
           id="path15"
           style="fill:#1c4598"
           d="m 753.308,133.175 -11.908,-22.82 -77.889,0 -11.77,22.819 -44.469,0 71.35,-130.994 50.034,0 71.344,130.995 -46.692,0 m -75.811,-51.27 50.049,0 -25.028,-47.425 -25.021,47.425 z"
           inkscape:connector-curvature="0" />
      </g>
    </g>
    <text
       xml:space="preserve"
       style="font-size:40px;font-style:normal;font-weight:normal;line-height:125%;letter-spacing:0px;word-spacing:0px;fill:#000000;fill-opacity:1;stroke:none;display:inline;font-family:Nokia Pure Headline Extra Bold;-inkscape-font-specification:Nokia Pure Headline Extra Bold"
       x="408.51468"
       y="767.4278"
       id="text4548"
       sodipodi:linespacing="125%"><tspan
         sodipodi:role="line"
         id="tspan4550"
         x="408.51468"
         y="767.4278"
         style="font-size:14px;fill:#124191;fill-opacity:1">BY</tspan></text>
  </g>
  <g
     inkscape:groupmode="layer"
     id="layer3"
     inkscape:label="moon"
     style="display:inline"
     transform="translate(-48.407698,-502.36218)">
    <text
       xml:space="preserve"
       style="font-size:40px;font-style:normal;font-weight:normal;line-height:125%;letter-spacing:0px;word-spacing:0px;fill:#000000;fill-opacity:1;stroke:none;font-family:Sans"
       x="375.52448"
       y="778.93561"
       id="text3044"
       sodipodi:linespacing="125%"><tspan
         sodipodi:role="line"
         id="tspan3046"
         x="375.52448"
         y="778.93561"
         style="font-family:Nokia Pure Headline Extra Bold;-inkscape-font-specification:Nokia Pure Headline Extra Bold" /></text>
    <path
       style="fill:#031538;fill-opacity:1"
       d="m 199.01437,544.35981 c -12.41284,-0.28818 -24.84642,1.81856 -36.78266,4.8736 -20.09396,6.28944 -39.28391,16.36398 -54.2007,31.41882 -13.986176,13.64927 -24.446052,30.75571 -30.952823,49.13341 -5.284143,15.76618 -7.076587,32.55088 -6.074961,49.13151 1.830266,27.60467 12.550397,54.73363 30.655844,75.70454 9.6532,11.03204 21.11762,20.39277 34.0276,27.35423 14.92313,8.17216 31.51082,13.34981 48.40412,15.24844 11.01598,-0.15033 22.15827,0.62303 33.077,-1.067 25.12877,-4.55628 49.42717,-15.56897 67.81129,-33.488 13.44547,-12.54394 23.81025,-28.21275 30.67919,-45.25092 12.6917,-31.83972 10.76118,-68.88278 -3.52749,-99.88262 -12.15323,-26.84957 -33.96542,-49.32379 -60.83341,-61.5111 -12.95304,-5.85684 -26.78685,-10.10165 -40.97857,-11.46304 -3.76313,-0.22793 -7.53599,-0.22131 -11.30443,-0.20187 z m 1.26887,3.56148 c 22.65507,0.22514 44.9308,7.80445 64.05067,19.78744 16.91586,10.55629 31.00607,25.53317 40.64578,42.98384 30.69437,49.5132 12.92787,117.62717 -25.39241,152.21477 -15.71966,13.4483 -34.35497,24.41876 -54.96909,28.40101 -15.79646,3.32806 -32.27777,3.74537 -48.18218,0.98623 -26.25503,-4.70779 -51.02241,-17.78554 -69.2145,-37.39123 -12.599916,-12.89189 -21.570843,-29.10046 -27.597492,-46.07211 -1.569302,-5.50698 -3.839366,-11.29622 -2.982995,-17.06684 0.220346,-1.70528 2.350088,-2.54758 2.335864,-4.22474 -0.990113,-1.46781 -3.672317,1.76724 -3.748918,-0.77862 -1.325649,-8.54739 -0.956908,-17.40191 -0.490243,-26.01173 0.02279,-4.49904 5.699585,-4.34759 7.815053,-7.3969 3.52619,-5.23147 5.109654,-11.56835 6.92108,-17.56224 0.145901,-2.16063 0.771065,-4.75275 3.287513,-5.23407 1.084417,-0.0402 1.581658,-1.66721 0.216284,-1.55724 -4.077164,-0.30943 -5.153591,4.67704 -5.926271,7.69944 -1.665406,5.67847 -3.127656,11.88207 -6.920984,16.58201 -1.273779,1.07968 -2.884174,1.66276 -4.52754,1.87446 0.848662,-15.5018 7.033294,-30.13931 14.118906,-43.77818 15.783103,-29.27837 44.064283,-51.75557 76.287703,-60.11012 11.18857,-2.88339 22.76613,-3.33356 34.27377,-3.34518 z"
       id="path3964"
       inkscape:connector-curvature="0"
       sodipodi:nodetypes="ccccccccccccccccccccccccccccccccccccc" />
    <path
       style="fill:#031538;fill-opacity:1"
       d="m 273.02492,610.99721 c -1.6171,-0.0176 -3.16275,0.56986 -4.64415,1.16231 -1.19404,0.49838 -2.33327,1.37449 -2.67638,2.68147 -0.57175,2.13602 -0.30956,4.64965 1.15212,6.38762 1.21355,1.44165 3.16308,2.09733 5.01373,1.94597 2.2085,-0.0321 4.56348,-0.54492 6.23724,-2.07087 1.35602,-1.2245 1.67897,-3.22586 1.29512,-4.95117 -0.37596,-1.70861 -1.13785,-3.51177 -2.66644,-4.48751 -1.12679,-0.66574 -2.43893,-0.70755 -3.71124,-0.66782 z m -0.40019,2.3807 c 1.00139,0.0483 2.10835,0.11578 2.95421,0.7137 1.41083,1.05486 2.04164,3.25739 0.96605,4.7563 -0.81031,1.11228 -2.24314,1.60902 -3.58631,1.52098 -1.35284,-0.0165 -2.86463,0.10536 -4.03499,-0.69768 -0.97073,-0.91445 -1.16358,-2.48413 -0.72644,-3.70614 0.64178,-1.59798 2.42434,-2.33355 4.00946,-2.56677 0.13902,-0.0113 0.27858,-0.0173 0.41802,-0.0204 z"
       id="path3966"
       inkscape:connector-curvature="0" />
    <path
       style="fill:#031538;fill-opacity:1"
       d="m 213.62667,568.54387 c -3.48936,0.0333 -6.8173,1.26695 -10.04999,2.45843 -1.31063,0.50038 -2.60109,1.50725 -2.71796,3.01355 -0.3104,2.68201 0.19154,5.48998 1.49596,7.8511 1.47574,2.19098 3.74445,3.70586 5.29534,5.82885 0.75525,1.11971 0.74951,2.65637 -0.0288,3.76334 -1.84698,2.39803 -4.37319,4.23225 -6.18572,6.67596 -1.85314,2.87969 -1.7115,6.60249 -0.79928,9.78189 1.03509,3.66502 3.60018,6.82101 6.93774,8.64796 5.10995,2.84146 11.03557,3.69574 16.80204,3.90505 4.20402,0.0369 8.42385,-0.2123 12.53725,-1.12107 2.99778,-0.69717 6.27632,-1.35254 8.56123,-3.57229 1.50513,-1.49166 2.08979,-3.69972 1.99223,-5.76359 -1.75768,-6.63192 -3.64428,-13.25825 -5.27614,-19.90568 0.39833,-2.94259 1.1955,-5.98484 0.43257,-8.93613 -0.71215,-2.47741 -2.65041,-4.36642 -4.83034,-5.62338 -3.43264,-2.12041 -7.06427,-3.96114 -10.95942,-5.05898 -4.27499,-1.27452 -8.73705,-2.00157 -13.20668,-1.94501 z m -1.3698,2.25296 c 4.69948,0.13838 9.36288,0.94374 13.93949,2.00063 1.96185,0.37455 3.74927,1.2621 5.51562,2.17925 2.32165,1.25313 4.80585,2.24944 6.88104,3.90553 1.41205,1.15144 2.22611,3.04517 1.85644,4.86278 -0.26545,2.25734 -1.15275,4.53293 -0.54385,6.82806 1.34649,5.04167 3.07672,9.989 4.55231,14.98055 0.58816,2.27089 0.90384,4.7863 -0.007,7.01568 -1.01525,2.06781 -3.03721,3.62138 -5.32059,3.98956 -2.43831,0.53245 -4.89367,1.09075 -7.35725,1.49756 -3.1171,-0.0413 -6.2569,0.19043 -9.35788,-0.11695 -2.99937,-0.64087 -6.05227,-1.0372 -9.03311,-1.7602 -3.76168,-0.91601 -7.62334,-2.80232 -9.54061,-6.34302 -1.32235,-2.40126 -1.78641,-5.25706 -1.36765,-7.95224 0.51472,-2.05511 1.97822,-3.70712 3.5756,-5.01872 1.86989,-1.64904 4.31473,-3.23606 4.75854,-5.8964 0.49504,-2.47529 -1.05326,-4.77729 -2.69068,-6.47773 -1.40433,-1.61541 -3.13574,-2.98408 -4.33133,-4.7474 -0.93526,-1.47161 -1.26476,-3.40107 -0.54432,-5.02139 0.92712,-1.7005 2.80393,-2.46779 4.57801,-2.94506 1.46846,-0.39359 2.91565,-0.94516 4.43742,-0.98049 z"
       id="path3968"
       inkscape:connector-curvature="0" />
    <path
       style="fill:#031538;fill-opacity:1"
       d="m 156.99694,592.65171 c -5.932,0.2075 -11.87404,1.29856 -17.4387,3.34257 -1.99705,0.71385 -3.92388,1.88068 -5.06485,3.74466 -2.65305,3.86653 -3.16019,8.77341 -2.62158,13.33301 0.16619,3.41036 0.76635,6.82536 0.68091,10.23317 -0.48034,4.04627 -3.17251,7.68084 -6.8872,9.34947 -5.27799,2.62318 -11.44719,4.04132 -15.4822,8.64087 -2.32131,2.45729 -3.56102,5.7109 -5.73509,8.25343 -1.29969,1.37144 -3.53256,0.74636 -4.91433,-0.18352 -2.633226,-1.97113 -4.044837,-5.41029 -3.702513,-8.68652 0.307156,-3.43389 0.962181,-7.20318 -0.865166,-10.35908 -0.154798,-0.60817 -1.105457,-1.1629 -1.396813,-0.34665 -0.01404,2.19146 0.463312,4.40133 0.361948,6.61702 -0.09249,3.10071 -0.752227,6.409 0.708602,9.30868 1.155047,2.76288 2.94662,5.75527 6.051152,6.57114 2.77196,0.62814 5.6071,-0.96311 7.00446,-3.3391 1.88906,-3.10289 3.40687,-6.63092 6.48957,-8.76321 4.13594,-3.27909 9.43067,-4.36891 14.00891,-6.84642 4.26634,-2.43315 7.22089,-7.28057 6.72224,-12.25511 -0.27291,-4.20438 -1.3963,-8.40243 -0.68684,-12.62121 0.47407,-2.59214 0.63349,-5.3587 1.98353,-7.6735 2.4695,-3.38238 6.84795,-4.45544 10.73609,-5.19472 4.47341,-0.78889 9.06607,-0.63404 13.59598,-0.50469 2.38844,0.2879 4.98145,0.60481 6.8974,2.21247 1.38102,1.02875 1.04625,2.9743 0.87604,4.4483 -0.98712,4.45076 -4.07346,7.9524 -6.30182,11.83182 -1.72856,2.74699 -3.10654,6.21012 -1.91003,9.44877 1.07027,3.38369 3.87707,6.03674 7.21856,7.15229 2.63567,1.15464 5.74118,1.55342 7.866,3.62458 2.04472,2.41338 1.53061,5.85556 1.1004,8.7194 -0.31739,2.08251 -1.55191,4.23073 -3.69011,4.85109 -2.98769,0.92627 -6.04842,1.7734 -9.16595,2.06464 -2.03623,0.17918 -3.95313,-0.68601 -5.91614,-0.92498 -3.78666,0.62796 -7.62176,1.75751 -10.76915,4.01428 -2.3545,1.92736 -2.59309,5.24237 -3.87947,7.81501 -0.88056,2.10078 -3.36275,2.65308 -5.39863,2.75285 -3.71411,0.13832 -7.52494,0.14237 -11.11842,-0.86154 -2.66363,-0.98119 -4.81593,-2.93892 -7.28994,-4.2975 -2.52097,-1.63917 -5.73882,-2.97006 -8.72753,-1.82503 -2.57689,1.1044 -4.662,3.50981 -5.01119,6.34174 -0.13398,0.65924 -0.26891,2.21264 0.79016,1.69248 1.29983,-1.09613 2.01102,-2.6484 2.46737,-4.25161 0.6506,-2.08731 3.19002,-2.52671 5.04178,-1.98816 4.23749,1.32942 7.72688,4.34372 11.70243,6.26147 2.712,0.89793 5.55214,1.55115 8.41371,1.6606 3.56235,-0.0373 7.39939,-0.69427 10.19062,-3.03833 2.15096,-2.29602 2.26421,-5.71754 3.88966,-8.3146 1.79309,-2.2147 4.75436,-2.91329 7.40209,-3.52262 2.61651,-0.60564 4.95253,1.2923 7.57542,0.88703 2.61271,-0.39608 5.09626,-1.32708 7.69905,-1.79368 2.91513,-0.52423 6.08383,-1.79298 7.4008,-4.65511 1.46944,-3.3475 1.11354,-7.28769 -0.16823,-10.63923 -0.90923,-2.4053 -2.72838,-4.55617 -5.26099,-5.30687 -3.15918,-1.21771 -6.97326,-1.54264 -9.31378,-4.25671 -1.0199,-1.26099 -1.58924,-2.86152 -1.33054,-4.49121 0.46906,-3.72524 2.82411,-6.86488 4.72891,-10.013 2.18164,-3.38074 4.32154,-7.21752 3.82019,-11.38781 -0.37214,-3.11615 -3.11716,-5.33111 -6.02567,-6.02056 -2.39732,-0.58241 -4.88374,-0.82188 -7.35111,-0.81056 z"
       id="path3970"
       inkscape:connector-curvature="0" />
    <path
       style="fill:#031538;fill-opacity:1"
       d="m 114.65924,677.80121 c -2.01613,0.10104 -4.29445,1.16115 -5.03158,3.15048 -0.53993,2.14996 0.49781,5.16735 2.97205,5.42922 3.14511,0.23476 6.52946,-2.43989 6.38252,-5.7198 -0.10208,-2.17307 -2.42992,-3.07384 -4.32299,-2.8599 z m -0.14784,2.75794 c 0.74194,0.0382 1.5512,0.18629 2.22777,0.37215 -0.74425,1.13105 -1.52298,2.72178 -3.10969,2.5999 -0.59463,0.009 -1.23281,-0.048 -1.78935,-0.17332 0.49959,-1.16455 1.15632,-2.78967 2.67127,-2.79873 z"
       id="path3972"
       inkscape:connector-curvature="0" />
    <path
       style="fill:#031538;fill-opacity:1"
       d="m 106.27341,667.50864 c -0.84324,0.61507 -0.77406,1.89249 -1.07564,2.81402 -0.13909,1.55381 -0.66165,3.14065 -2.00346,4.06809 -2.00819,1.47492 -3.713823,3.35794 -4.785088,5.62897 -1.225423,2.27342 -2.400731,5.13917 -5.063974,5.98904 -3.102826,0.61526 -6.239821,-0.41459 -9.354102,-0.55779 -1.831899,-0.0726 -3.665123,0.48281 -5.286944,1.28679 -0.698002,0.60698 0.0829,2.0612 0.971909,1.45189 2.804716,-1.15556 5.875914,-0.24366 8.775681,0.0272 2.255089,0.47474 4.615643,0.20114 6.677706,-0.84189 2.446371,-1.05457 4.047767,-3.32223 5.108052,-5.68411 0.88437,-2.08764 2.00966,-4.1274 3.85908,-5.51588 1.49079,-1.27293 3.64194,-2.57862 3.46144,-4.83787 -0.11736,-1.23525 -0.11925,-2.60816 -0.75448,-3.70104 -0.16001,-0.1415 -0.32648,-0.16105 -0.53018,-0.12745 z"
       id="path3974"
       inkscape:connector-curvature="0" />
    <path
       style="fill:#031538;fill-opacity:1"
       d="m 151.41494,688.85846 c -3.0906,0.20554 -6.08715,1.89486 -7.6888,4.57686 -1.37357,2.08686 -2.7652,4.29828 -5.10173,5.42004 -5.51532,3.08777 -11.80984,4.11142 -17.83662,5.79259 -3.62651,1.05957 -7.44619,1.79631 -10.71647,3.76589 -1.64853,0.98734 -2.33602,2.94064 -2.22084,4.78678 -0.0794,5.7173 0.66042,11.58959 3.11669,16.80099 1.4739,2.52084 3.40621,4.74701 4.80355,7.30689 0.96097,1.71599 2.75787,3.08042 4.81748,2.86499 4.54299,-0.0402 8.56626,-2.62056 11.9057,-5.48234 0.99122,-0.85184 2.35329,-1.41661 3.64276,-0.95625 2.56318,0.61028 5.2368,1.4674 7.87109,0.78507 2.09005,-0.53135 4.22194,-0.92293 6.39271,-0.78507 1.46834,0.13427 2.88246,-0.11272 4.24052,-0.67793 3.53972,-1.26335 7.2973,-2.0609 10.58915,-3.92034 2.15365,-1.47623 4.10198,-3.36462 5.45471,-5.60764 2.05418,-4.02869 2.82908,-8.63029 2.70186,-13.13208 0.10946,-3.71639 -0.3552,-7.61606 -2.3858,-10.81255 -2.47239,-3.29945 -6.86722,-4.00754 -10.03258,-6.41311 -2.4375,-1.78589 -4.82593,-4.09482 -8.02341,-4.26065 -0.50791,-0.0453 -1.0202,-0.0604 -1.52997,-0.0521 z m 0.75958,2.47756 c 2.55861,-0.2371 4.56007,1.58547 6.41612,3.07124 2.86086,2.52534 6.588,3.66488 9.66762,5.85001 2.35969,1.68379 2.69176,4.80344 2.68147,7.48875 0.0445,5.56407 -0.17616,11.63066 -3.58889,16.25707 -2.9242,3.82605 -7.63478,5.7376 -12.20208,6.73659 -4.11696,0.79962 -8.30904,1.27008 -12.49704,1.54743 -2.72094,0.0964 -5.21934,-1.16666 -7.88129,-1.50897 -2.51305,0.22837 -4.25734,2.36279 -6.18893,3.75147 -2.28831,1.84831 -4.94847,3.79315 -8.05448,3.39573 -2.26659,-0.2477 -3.19882,-2.64294 -4.29293,-4.33202 -1.85221,-3.3125 -4.85562,-6.21393 -5.38413,-10.0876 -0.44396,-3.52214 -0.4185,-7.14213 -0.15161,-10.67713 0.0833,-1.49185 0.86172,-2.9705 2.30423,-3.55321 3.14193,-1.52238 6.68533,-1.77493 9.95983,-2.96569 6.1329,-1.92994 12.30855,-3.76989 18.34348,-5.98105 3.317,-2.08922 4.35466,-6.41874 7.65188,-8.51342 1.01348,-0.39907 2.13391,-0.44354 3.21675,-0.4792 z"
       id="path3976"
       inkscape:connector-curvature="0" />
    <path
       style="fill:#124191;fill-opacity:1;stroke:#124191;stroke-width:0.71441287;stroke-linecap:round;stroke-miterlimit:4;stroke-opacity:1;stroke-dasharray:none"
       d="m 130.70809,665.50888 c -3.63957,-0.65974 -5.83814,-1.50762 -9.35448,-3.60754 -4.98158,-2.97494 -7.3092,-4.02803 -8.95805,-4.0529 -2.39438,-0.0361 -3.10963,0.4571 -4.23087,2.91749 -0.93969,2.06201 -1.92201,3.45628 -2.43509,3.45628 -0.47771,0 -0.21072,-2.18536 0.43641,-3.57207 0.68291,-1.46341 2.38165,-3.22231 3.81136,-3.94635 2.78488,-1.41033 5.73143,-0.60865 11.45193,3.11578 1.29899,0.84574 2.88551,1.80488 3.52559,2.13142 1.85418,0.94594 5.05184,1.41392 9.66103,1.41392 6.56546,0 7.59486,-0.56262 9.26919,-5.06612 1.45755,-3.92042 2.17061,-4.97452 4.1713,-6.16633 1.98925,-1.18499 5.09358,-2.35933 7.65749,-2.89678 1.48162,-0.31057 2.09146,-0.30904 3.57377,0.009 3.47917,0.74642 6.46646,0.46204 11.89078,-1.13196 4.23992,-1.24596 5.4309,-3.18549 5.50806,-8.97 0.064,-4.79579 -0.8994,-5.87919 -7.28247,-8.18976 -3.72385,-1.34798 -4.91192,-2.00754 -6.52891,-3.62453 -2.58382,-2.58382 -3.56538,-5.89067 -2.66641,-8.98302 0.62532,-2.15104 1.41376,-3.69172 3.83244,-7.489 3.6469,-5.72556 4.95725,-9.1154 4.4888,-11.61243 -0.55022,-2.93292 -4.34797,-4.18086 -12.69535,-4.17168 -5.32974,0.006 -9.3417,0.48592 -12.81301,1.53317 -2.69049,0.81169 -3.17278,1.04029 -5.01289,2.37605 -1.96874,1.42913 -2.9196,3.55929 -3.66853,8.21848 -0.6286,3.91055 -0.62054,4.25764 0.30011,12.92567 0.33888,3.19057 0.0591,4.95173 -1.19453,7.51862 -1.84515,3.77817 -4.25161,5.47982 -12.80656,9.05579 -3.96875,1.65893 -6.91564,3.5292 -8.54949,5.42598 -0.66811,0.77563 -2.15346,2.94536 -3.30077,4.82163 -2.28202,3.7319 -3.70803,5.05049 -5.85403,5.41306 -2.43662,0.41166 -4.838174,-0.90066 -6.580026,-3.59564 -2.193711,-3.3941 -2.340393,-4.11221 -2.403891,-11.76867 -0.03099,-3.73647 0.02505,-6.92526 0.124518,-7.08622 0.251402,-0.40677 0.732434,0.22984 1.329464,1.75945 0.40721,1.04328 0.494302,2.27374 0.503915,7.11946 0.01147,5.78369 0.02129,5.87635 0.77179,7.28701 1.415917,2.66138 3.75832,4.40909 5.92812,4.42308 1.25426,0.008 2.52175,-1.29009 4.62932,-4.74139 1.81412,-2.97076 4.52026,-5.94757 6.75558,-7.43129 0.87821,-0.58292 4.14906,-2.18214 7.26857,-3.55381 3.52053,-1.54802 6.16843,-2.9009 6.98114,-3.56684 2.81304,-2.30508 4.39792,-5.5412 4.39792,-8.97998 0,-1.03302 -0.1994,-4.24745 -0.44312,-7.14319 -0.59816,-7.10715 -0.24652,-10.13644 1.59589,-13.74785 1.51171,-2.9632 3.34261,-4.37805 7.34824,-5.67844 8.80367,-2.85802 18.21404,-3.58446 23.64757,-1.8255 4.39798,1.42373 6.24374,4.74521 5.17445,9.31155 -0.53761,2.29584 -1.21287,3.6888 -4.21792,8.70088 -2.86345,4.7759 -3.60613,6.40741 -3.90219,8.57226 -0.39159,2.86338 0.51674,4.98304 2.73942,6.39262 0.68138,0.43212 3.02905,1.39306 5.21705,2.13543 4.35937,1.47909 5.71879,2.36161 6.99667,4.54214 1.2292,2.09747 1.68111,4.04386 1.69576,7.30368 0.0122,2.71633 -0.0616,3.15346 -0.77943,4.61515 -1.39884,2.84849 -2.8968,3.6323 -10.33817,5.40951 l -5.13001,1.2252 -2.44276,-0.54454 c -3.09232,-0.68932 -4.45247,-0.63937 -7.30077,0.26812 -3.96682,1.26387 -4.85784,2.22077 -6.62074,7.11031 -0.40903,1.13448 -1.03568,2.4927 -1.39256,3.01826 -1.2946,1.90656 -4.04719,3.19314 -8.01112,3.74447 -2.62045,0.36447 -3.11833,0.35351 -5.7695,-0.12707 l 0,0 z"
       id="path4532"
       inkscape:connector-curvature="0" />
    <path
       style="fill:#124191;fill-opacity:1;stroke:#124191;stroke-width:0.71441287;stroke-linecap:round;stroke-miterlimit:4;stroke-opacity:1;stroke-dasharray:none"
       d="m 111.46084,685.79659 c -0.98477,-0.53516 -1.68072,-2.05725 -1.68072,-3.67586 0,-1.67567 1.15141,-3.07888 3.06003,-3.72921 5.14976,-1.7547 8.02569,2.36398 4.21169,6.03165 -1.75545,1.68809 -3.99819,2.23902 -5.591,1.37342 z m 3.47639,-2.43525 c 0.30101,-0.1611 0.87156,-0.77012 1.2679,-1.35339 0.65967,-0.97078 0.67826,-1.07724 0.21978,-1.25872 -1.13864,-0.45069 -2.81803,-0.25179 -3.41585,0.40456 -0.80126,0.87971 -1.29038,1.8835 -1.08205,2.22059 0.22788,0.36871 2.31379,0.35967 3.01022,-0.013 l 0,0 z"
       id="path4534"
       inkscape:connector-curvature="0" />
    <path
       style="fill:#124191;fill-opacity:1;stroke:#124191;stroke-width:0.71441287;stroke-linecap:round;stroke-miterlimit:4;stroke-opacity:1;stroke-dasharray:none"
       d="m 117.92443,739.23699 c -1.461,-0.97472 -6.53265,-8.53062 -7.63689,-11.37766 -0.42819,-1.104 -1.05196,-3.30389 -1.38617,-4.88865 -0.6383,-3.02677 -1.0551,-9.62445 -0.72064,-11.40729 0.57015,-3.03918 3.20463,-4.2671 16.88783,-7.87136 5.90198,-1.55463 10.59416,-3.10233 12.81087,-4.22563 1.89961,-0.9626 3.98135,-2.95844 5.62927,-5.39697 2.21169,-3.27279 4.49269,-4.6707 8.01526,-4.91214 2.03375,-0.1394 2.36176,-0.0816 4.0667,0.71621 1.01999,0.47731 2.80985,1.58687 3.97747,2.46569 1.16762,0.87882 3.52745,2.31869 5.24407,3.1997 5.40189,2.77241 6.44496,3.84958 7.72351,7.97603 0.43609,1.40744 0.53197,2.66161 0.53525,7.00124 0.004,4.63764 -0.077,5.58485 -0.65557,7.71566 -1.03287,3.80377 -2.30617,6.16983 -4.48954,8.34249 -2.42435,2.41247 -4.19053,3.33956 -10.08378,5.2931 -4.33124,1.43576 -5.0961,1.6018 -8.34059,1.81064 -1.96464,0.12646 -4.08645,0.36466 -4.71513,0.52934 -1.76002,0.46101 -4.18053,0.36982 -7.02985,-0.26486 -3.18665,-0.70981 -3.88482,-0.55975 -6.33269,1.36111 -3.97018,3.11542 -6.71327,4.3572 -10.0702,4.55872 -2.11889,0.1272 -2.36974,0.0815 -3.42918,-0.62537 z m 6.92212,-2.04648 c 0.82093,-0.38734 2.8089,-1.73584 4.41771,-2.99668 4.37561,-3.4292 4.91393,-3.61017 8.03767,-2.70208 3.74443,1.08854 8.2456,1.01274 15.70153,-0.26441 10.00072,-1.71305 15.21336,-5.64261 17.08763,-12.88156 0.68534,-2.64698 1.10175,-9.42197 0.78393,-12.75464 -0.37312,-3.91247 -1.25895,-4.96948 -6.52975,-7.79153 -1.76131,-0.94302 -4.42551,-2.63507 -5.92046,-3.7601 -3.38728,-2.54911 -4.87677,-3.08096 -7.56314,-2.70052 -1.0477,0.14838 -2.23066,0.50536 -2.62878,0.79331 -0.39812,0.28795 -1.70476,1.84119 -2.90365,3.45165 -1.19888,1.61046 -2.5894,3.28775 -3.09004,3.72732 -0.60227,0.5288 -2.50078,1.34866 -5.61126,2.42319 -5.92682,2.04744 -15.26893,4.96821 -17.70334,5.53487 -5.07465,1.18124 -7.3861,2.34882 -8.03851,4.0605 -0.43283,1.13555 -0.61773,8.02656 -0.29157,10.86634 0.22289,1.94066 0.54295,3.16068 1.16201,4.42936 1.05331,2.15861 5.76937,9.48375 6.71397,10.42834 1.28589,1.28589 3.82496,1.3403 6.37605,0.13664 l 0,0 z"
       id="path4536"
       inkscape:connector-curvature="0" />
    <path
       style="fill:#124191;fill-opacity:1;stroke:#124191;stroke-width:0.71441287;stroke-linecap:round;stroke-miterlimit:4;stroke-opacity:1;stroke-dasharray:none"
       d="m 269.70814,622.77865 c -2.99921,-0.89898 -4.69764,-4.09837 -3.91269,-7.37044 0.4143,-1.72701 1.09635,-2.40774 3.31429,-3.30793 4.75137,-1.92842 8.02571,-1.0988 9.53801,2.41664 1.20001,2.7895 0.65957,5.55202 -1.35885,6.94595 -1.88661,1.30291 -5.51984,1.93352 -7.58076,1.31578 l 0,0 z m 5.32485,-2.66772 c 0.50576,-0.21406 1.1501,-0.64819 1.43187,-0.96473 1.25749,-1.41269 0.73333,-4.15748 -0.9952,-5.21133 -1.95444,-1.19159 -5.8094,-0.49769 -6.95588,1.25207 -1.18705,1.81166 -0.61281,4.41226 1.09548,4.96122 1.34197,0.43124 4.36595,0.41048 5.42373,-0.0372 l 0,0 z"
       id="path4538"
       inkscape:connector-curvature="0" />
    <path
       style="fill:#124191;fill-opacity:1;stroke:#124191;stroke-width:0.71441287;stroke-linecap:round;stroke-miterlimit:4;stroke-opacity:1;stroke-dasharray:none"
       d="m 218.25642,619.76358 c -6.42524,-0.99894 -10.67749,-2.83847 -13.75138,-5.94886 -1.22648,-1.24104 -2.31628,-2.67569 -2.80316,-3.69019 -1.00321,-2.09033 -1.70912,-5.60925 -1.50244,-7.48963 0.32518,-2.95853 0.88605,-3.94429 4.29691,-7.55208 1.76679,-1.8688 3.37565,-3.79207 3.57524,-4.27392 0.69206,-1.67077 0.21277,-2.69255 -2.71282,-5.78337 -1.52583,-1.612 -2.93299,-3.39384 -3.25491,-4.12159 -1.30542,-2.95112 -1.49072,-6.87631 -0.39477,-8.36219 0.70574,-0.95682 4.13322,-2.38211 7.75815,-3.22615 2.32338,-0.54099 3.17631,-0.5992 6.5726,-0.44856 7.65203,0.3394 14.1494,2.34836 21.10798,6.52649 5.02523,3.01729 6.203,5.86707 5.20314,12.58968 -0.35176,2.36507 -0.52183,1.5242 2.93426,14.50829 1.69673,6.37442 1.98955,7.80684 1.85748,9.08652 -0.15746,1.52555 -1.09627,3.4981 -2.09461,4.40099 -1.67511,1.51496 -6.26519,3.01983 -11.56834,3.79272 -3.75251,0.5469 -11.68057,0.54265 -15.22333,-0.008 z m 17.57299,-2.38576 c 4.77579,-0.97007 4.8807,-1.00362 6.44042,-2.05998 2.24185,-1.51835 3.23107,-4.35582 2.69226,-7.72246 -0.15952,-0.99668 -1.33287,-5.21989 -2.60745,-9.38492 -2.54253,-8.30839 -2.66063,-9.09819 -1.99708,-13.35634 0.3892,-2.49763 0.38113,-2.7132 -0.1496,-3.99379 -0.7376,-1.77975 -2.21565,-2.87506 -7.37937,-5.46847 -4.66355,-2.3422 -7.36371,-3.13767 -13.83531,-4.07591 -4.9007,-0.71049 -8.36661,-0.62069 -11.2271,0.2909 -3.59894,1.14692 -4.97916,2.57425 -4.95261,5.12164 0.0224,2.14533 0.45263,2.8806 3.73933,6.39016 5.32783,5.68907 5.44745,8.23214 0.59168,12.57842 -2.97058,2.65888 -3.48729,3.23844 -4.23767,4.75308 -1.26336,2.55006 -0.5645,7.53221 1.47169,10.49171 1.10017,1.59905 2.25846,2.54031 4.53456,3.68495 2.26683,1.13997 4.00571,1.63911 9.45772,2.7148 3.44909,0.6805 4.91444,0.82213 8.74269,0.84497 4.02408,0.024 5.11381,-0.0771 8.71584,-0.80876 l 0,0 z"
       id="path4540"
       inkscape:connector-curvature="0" />
    <text
       xml:space="preserve"
       style="font-size:40px;font-style:normal;font-weight:normal;line-height:125%;letter-spacing:0px;word-spacing:0px;fill:#000000;fill-opacity:1;stroke:none;font-family:Sans"
       x="386.3511"
       y="772.29803"
       id="text4552"
       sodipodi:linespacing="125%"><tspan
         sodipodi:role="line"
         id="tspan4554"
         x="386.3511"
         y="772.29803"></tspan></text>
    <text
       xml:space="preserve"
       style="font-size:40px;font-style:normal;font-weight:normal;line-height:125%;letter-spacing:0px;word-spacing:0px;fill:#000000;fill-opacity:1;stroke:none;font-family:Sans"
       x="416.05487"
       y="789.47369"
       id="text4558"
       sodipodi:linespacing="125%"><tspan
         sodipodi:role="line"
         id="tspan4560"
         x="416.05487"
         y="789.47369"></tspan></text>
    <path
       style="fill:#1c4598;fill-opacity:1;stroke:#ffffff;stroke-width:2.06107807;stroke-linecap:round;stroke-linejoin:round;stroke-miterlimit:4;stroke-opacity:1;stroke-dasharray:none"
       d="m 194.9094,543.30887 c -20.03647,0.10586 -39.84427,5.46788 -57.52367,14.78155 -25.96443,12.97683 -46.549288,35.7898 -57.942082,62.37414 -17.411543,40.26415 -11.572533,89.13022 13.528583,124.88759 17.718049,25.70769 45.646039,43.73913 75.996889,50.50192 7.79338,2.03461 15.82889,2.74103 23.86907,2.51049 10.66605,0.008 21.50079,0.33578 31.87601,-2.53574 22.72214,-5.33108 44.37264,-16.10123 61.22824,-32.36948 23.3479,-22.1657 38.19894,-53.40781 39.30986,-85.72424 1.96162,-43.23682 -18.71486,-87.10752 -54.40651,-111.88762 -16.2637,-11.26439 -35.16667,-18.5832 -54.64052,-21.86887 -7.05838,-0.77725 -14.20175,-0.68167 -21.29587,-0.66974 z m 2.23536,6.04937 c 20.92623,-0.45377 41.43541,5.47326 59.66159,15.51214 15.98576,8.48517 29.77599,21.15419 40.31266,35.7541 10.82807,15.53636 19.13157,33.32638 21.14867,52.29006 3.50005,28.64123 -3.29142,58.05894 -18.14898,82.65089 -8.5094,14.63582 -20.48794,27.13535 -34.52392,36.43217 -17.3141,12.1124 -38.01573,19.37156 -59.18022,20.40872 -28.57925,2.22193 -57.41781,-6.30183 -80.63715,-22.97244 C 107.47432,756.45621 93.098862,738.229 84.420636,717.52035 81.173528,709.338 77.45381,700.78995 78.064462,691.82773 c 0.524775,-1.50585 1.667892,-2.86127 3.384614,-2.70264 5.026092,-0.54162 10.746613,2.10591 15.268647,-1.32606 4.444517,-3.03971 5.495757,-8.93967 9.825487,-12.16188 2.65168,-1.92812 3.04086,-5.98019 1.19977,-8.54993 -1.70295,-1.51899 -3.58722,0.70127 -3.6372,2.47531 -0.30751,3.65643 -4.14315,5.38202 -5.809412,8.3605 -1.948401,2.42814 -2.867989,6.81325 -6.642936,6.81974 -4.80714,-0.16049 -9.937372,-1.20916 -14.409865,1.23766 -1.528197,0.87636 -0.802293,-1.82719 -1.094719,-2.66419 -0.148391,-7.76154 -0.61087,-15.61436 0.109645,-23.32661 0.701694,-2.65932 4.303853,-2.72261 5.948332,-4.68542 4.212145,-4.37576 5.561972,-10.62914 7.590122,-16.16531 1.195946,-2.18233 0.512151,-5.15295 2.475314,-6.87026 1.376788,-0.67208 3.604638,-1.86608 2.487943,-3.70035 -2.118671,-2.19364 -5.582112,0.16708 -6.908147,2.26062 -2.595996,5.44474 -3.281617,11.67565 -6.000198,17.11494 -1.028444,2.25015 -2.330093,4.69409 -4.810358,5.54177 1.529688,-16.82465 8.793149,-32.42235 16.986212,-46.99309 17.339527,-28.16339 46.364807,-49.15622 78.944847,-55.35358 7.99116,-1.36097 16.08251,-1.63294 24.1722,-1.78071 z"
       id="path4681"
       inkscape:connector-curvature="0" />
    <path
       style="opacity:0;fill:#ffffff;fill-opacity:0;stroke:#ffffff;stroke-width:0.51526952;stroke-linecap:round;stroke-linejoin:round;stroke-miterlimit:4;stroke-opacity:1;stroke-dasharray:none"
       d="m 317.84973,647.02112 c -0.95184,0.73147 -0.48298,1.97035 -0.38138,2.9555 0.89817,5.99784 1.22194,12.06397 1.23434,18.13195 0.0715,1.2955 -0.0654,2.62352 0.16358,3.89872 0.29301,1.05382 1.6611,1.33435 2.4912,0.72048 2.28837,-1.1764 4.07116,-3.53897 4.2876,-6.1283 -0.0797,-4.37978 -0.65195,-8.73537 -1.21871,-13.07433 -0.25295,-1.37372 -0.26885,-2.81344 -0.74828,-4.12974 -1.21876,-1.45315 -3.034,-2.45747 -4.92537,-2.63153 -0.34081,-0.0692 -0.6026,0.13752 -0.90298,0.25725 z"
       id="path4699"
       inkscape:connector-curvature="0" />
    <path
       style="opacity:0;fill:#ffffff;fill-opacity:0;stroke:#ffffff;stroke-width:0.36435056;stroke-linecap:round;stroke-linejoin:round;stroke-miterlimit:4;stroke-opacity:1;stroke-dasharray:none"
       d="m 318.07126,646.81998 c -0.73225,0.33584 -1.0339,1.21357 -0.78897,1.95683 0.91514,6.20357 1.44991,12.4831 1.41855,18.77007 0.0257,1.44548 -0.0523,2.90359 0.0771,4.34128 0.15745,0.98442 1.35852,1.51213 2.21349,1.03691 1.94965,-0.82848 3.43564,-2.51023 4.22766,-4.45256 0.32577,-0.70804 0.61839,-1.46189 0.46204,-2.25518 -0.31077,-5.4058 -0.81773,-10.81954 -1.80526,-16.15124 -0.26923,-1.26057 -1.45139,-1.97263 -2.50491,-2.5317 -0.90256,-0.41378 -1.87516,-0.80767 -2.87319,-0.82584 -0.14217,0.0371 -0.28434,0.0743 -0.42651,0.11143 z"
       id="path4707"
       inkscape:connector-curvature="0" />
    <path
       style="fill:#ff0000;fill-opacity:0;stroke:#ffffff;stroke-width:0.36435056;stroke-linecap:round;stroke-linejoin:round;stroke-miterlimit:4;stroke-opacity:1;stroke-dasharray:none"
       d="m 318.07126,646.81998 c -0.73225,0.33584 -1.0339,1.21357 -0.78897,1.95683 0.91514,6.20357 1.44991,12.4831 1.41855,18.77007 0.0257,1.44548 -0.0523,2.90359 0.0771,4.34128 0.15745,0.98442 1.35852,1.51213 2.21349,1.03691 1.94965,-0.82848 3.43564,-2.51023 4.22766,-4.45256 0.32577,-0.70804 0.61839,-1.46189 0.46204,-2.25518 -0.31077,-5.4058 -0.81773,-10.81954 -1.80526,-16.15124 -0.26923,-1.26057 -1.45139,-1.97263 -2.50491,-2.5317 -0.90256,-0.41378 -1.87516,-0.80767 -2.87319,-0.82584 -0.14217,0.0371 -0.28434,0.0743 -0.42651,0.11143 z"
       id="path4711"
       inkscape:connector-curvature="0" />
    <path
       style="fill:#ff0000;fill-opacity:0;stroke:#ffffff;stroke-width:0.36435056;stroke-linecap:round;stroke-linejoin:round;stroke-miterlimit:4;stroke-opacity:1;stroke-dasharray:none"
       d="m 318.07126,646.81998 c -0.73225,0.33584 -1.0339,1.21357 -0.78897,1.95683 0.91514,6.20357 1.44991,12.4831 1.41855,18.77007 0.0257,1.44548 -0.0523,2.90359 0.0771,4.34128 0.15745,0.98442 1.35852,1.51213 2.21349,1.03691 1.94965,-0.82848 3.43564,-2.51023 4.22766,-4.45256 0.32577,-0.70804 0.61839,-1.46189 0.46204,-2.25518 -0.31077,-5.4058 -0.81773,-10.81954 -1.80526,-16.15124 -0.26923,-1.26057 -1.45139,-1.97263 -2.50491,-2.5317 -0.90256,-0.41378 -1.87516,-0.80767 -2.87319,-0.82584 -0.14217,0.0371 -0.28434,0.0743 -0.42651,0.11143 z"
       id="path4713"
       inkscape:connector-curvature="0" />
    <path
       style="fill:#ffffff;fill-opacity:1;stroke:#ffffff;stroke-width:2.91480446;stroke-linecap:round;stroke-linejoin:round;stroke-miterlimit:4;stroke-opacity:1;stroke-dasharray:none"
       d="m 320.08997,662.62487 c -0.20276,-5.10805 -0.53327,-10.38042 -0.73448,-11.71637 -0.34734,-2.30625 -0.29378,-2.429 1.05984,-2.429 1.33049,0 1.4714,0.2835 2.11074,4.24674 0.37679,2.33571 0.8675,7.1214 1.09048,10.63487 0.39918,6.29001 0.38429,6.40474 -0.9695,7.46963 -0.7562,0.59482 -1.55795,1.0815 -1.78167,1.0815 -0.22372,0 -0.57265,-4.17931 -0.77541,-9.28737 z"
       id="path4737"
       inkscape:connector-curvature="0" />
  </g>
  <g
     inkscape:groupmode="layer"
     id="layer4"
     inkscape:label="ship"
     style="display:inline"
     transform="translate(-48.407698,-502.36218)">
    <path
       style="fill:none;stroke:#031538;stroke-width:2.5;stroke-linecap:butt;stroke-linejoin:miter;stroke-miterlimit:4;stroke-opacity:1;stroke-dasharray:none;display:inline"
       d="m 361.53518,553.54491 c -15.60382,-6.41016 -36.35421,11.38272 -47.69011,25.32745 4.3491,2.60927 6.03297,6.5184 5.50486,8.77393 22.27326,-5.72242 41.03928,-20.08605 42.18525,-34.10138 z"
       id="path3065"
       inkscape:connector-curvature="0"
       sodipodi:nodetypes="cccc"
       inkscape:transform-center-x="-29.988059"
       inkscape:transform-center-y="5.9948681" />
    <path
       style="fill:none;stroke:#031538;stroke-width:2.5;stroke-linecap:butt;stroke-linejoin:miter;stroke-miterlimit:4;stroke-opacity:1;stroke-dasharray:none;display:inline"
       d="m 329.17405,563.55582 -6.15964,-2.11174 -13.92764,9.81518 7.38629,4.47482 c 4.09499,-4.6202 7.2815,-7.36724 12.701,-12.17831 z"
       id="path3067"
       inkscape:connector-curvature="0"
       sodipodi:nodetypes="cccccc"
       inkscape:transform-center-x="-11.428349"
       inkscape:transform-center-y="4.6620198" />
    <path
       sodipodi:type="arc"
       style="fill:none;stroke:#031538;stroke-width:4.38151503;stroke-miterlimit:4;stroke-opacity:1;stroke-dasharray:none;display:inline"
       id="path3113"
       sodipodi:cx="276.12903"
       sodipodi:cy="496.66327"
       sodipodi:rx="7.3118281"
       sodipodi:ry="7.7419353"
       d="m 283.44086,496.66327 c 0,4.27575 -3.27362,7.74193 -7.31183,7.74193 -4.03821,0 -7.31183,-3.46618 -7.31183,-7.74193 0,-4.27575 3.27362,-7.74194 7.31183,-7.74194 4.03821,0 7.31183,3.46619 7.31183,7.74194 z"
       transform="matrix(0.31366282,0.47662974,-0.47662974,0.31366282,495.54927,276.58632)"
       inkscape:transform-center-x="-37.734129"
       inkscape:transform-center-y="0.055368414" />
    <path
       style="fill:none;stroke:#031538;stroke-width:2.5;stroke-linecap:butt;stroke-linejoin:miter;stroke-miterlimit:4;stroke-opacity:1;stroke-dasharray:none;display:inline"
       d="m 339.10399,580.09875 -0.49726,6.49257 -14.52426,8.90858 -1.32981,-8.87475 c 6.02181,-1.69229 9.86876,-3.43576 16.30447,-6.70261 z"
       id="path3067-4"
       inkscape:connector-curvature="0"
       sodipodi:nodetypes="cccccc"
       inkscape:transform-center-x="-23.226259"
       inkscape:transform-center-y="23.78416" />
    <path
       style="fill:#ffffff;fill-opacity:1;stroke:#031538;stroke-width:2.5;stroke-linecap:round;stroke-linejoin:miter;stroke-miterlimit:4.4000001;stroke-opacity:1;stroke-dasharray:none"
       d="m 293.09187,581.65936 c 0.70649,-5.18179 -2.51162,-5.08354 -4.33939,-5.45537 -3.50042,-4.81548 -3.77077,-1.69596 -4.6568,-0.81394 -3.8141,-1.37894 -4.09967,0.20724 -1.99219,3.80435 -2.60845,1.04242 -1.37305,3.30384 1.35043,6.03719 -1.67,5.85943 2.37179,6.61323 4.95452,8.09797 -0.67721,3.2657 0.27223,6.3359 5.46685,8.5919 -0.88684,6.53189 3.38045,8.09906 6.49162,9.57974 1.27987,4.71502 3.17492,6.2168 5.36763,6.16388 1.3307,2.08556 2.45787,4.81578 4.88324,3.43526 1.59277,1.0676 2.94861,1.43179 3.25738,-1.31252 2.24301,-1.98679 1.85371,-4.22908 -0.0468,-6.61807 -0.42001,-1.99999 1.4655,-3.04675 -4.1877,-7.21741 -0.0613,-3.84289 -2.28954,-5.96628 -5.60807,-7.66786 -0.0813,-1.96865 0.49626,-3.8877 -3.68232,-6.16481 0.2724,-4.76011 -2.19594,-4.76021 -3.94376,-5.99279 0.18387,-1.06621 1.92259,-2.77293 -3.31466,-4.46752 z"
       id="path4027"
       inkscape:connector-curvature="0"
       sodipodi:nodetypes="ccccccccccccccccc"
       inkscape:transform-center-x="9.6643561"
       inkscape:transform-center-y="33.811781" />
    <path
       style="fill:#124191;fill-opacity:1;stroke:#124191;stroke-width:0.17860322;stroke-linecap:round;stroke-miterlimit:4;stroke-opacity:1;stroke-dasharray:none"
       d="m 311.90873,623.02753 c -0.23576,-0.0525 -0.64201,-0.19328 -0.90279,-0.31285 l -0.47414,-0.21741 -0.55431,0.11304 c -0.44446,0.0906 -0.64539,0.098 -1.01383,0.0369 -1.26983,-0.21042 -2.24046,-1.05199 -3.41321,-2.9594 l -0.50009,-0.81337 -0.56023,-0.12601 c -1.17682,-0.26471 -2.37951,-1.08646 -3.1725,-2.16764 -0.72351,-0.98645 -1.34872,-2.26486 -1.75837,-3.59549 l -0.18561,-0.60288 -1.30524,-0.66267 c -1.48691,-0.7549 -2.32884,-1.32785 -3.18109,-2.16481 -1.02312,-1.00477 -1.68522,-2.16768 -2.06826,-3.63269 -0.14722,-0.56306 -0.1855,-0.91126 -0.21657,-1.9699 l -0.0377,-1.28595 -0.72272,-0.40387 c -1.86907,-1.04447 -3.20559,-2.29471 -3.96827,-3.7121 -0.62285,-1.15751 -0.88136,-2.28169 -0.8506,-3.69894 l 0.0192,-0.88511 -0.74774,-0.36609 c -2.51762,-1.23261 -3.65778,-2.36414 -4.2182,-4.18624 -0.14083,-0.4579 -0.16539,-0.69683 -0.16892,-1.64315 -0.002,-0.65589 0.0367,-1.33486 0.096,-1.6654 l 0.10016,-0.55805 -0.32014,-0.33496 c -0.72005,-0.75338 -1.48465,-1.80309 -1.87513,-2.57436 -0.6652,-1.3139 -0.57174,-2.6534 0.24712,-3.54176 l 0.30064,-0.32616 -0.26975,-0.62557 c -0.53912,-1.25026 -0.70112,-2.10562 -0.53218,-2.80985 0.32207,-1.34253 1.53086,-1.88993 3.35968,-1.52143 0.57015,0.11488 0.57901,0.11445 0.68212,-0.0327 0.79435,-1.1341 1.43596,-1.50397 2.37794,-1.37082 0.88609,0.12525 1.73788,0.72764 2.77823,1.96479 l 0.59987,0.71333 0.64623,0.12326 c 1.95677,0.37323 3.07422,1.10658 3.73402,2.4505 0.38061,0.77527 0.53754,1.49088 0.53754,2.45128 l 0,0.70671 0.47752,0.20295 c 1.71307,0.72806 2.70546,1.5942 3.05803,2.66898 0.0987,0.30101 0.11758,0.52079 0.0857,1.00018 -0.0225,0.33792 -0.0592,0.6787 -0.0815,0.75728 -0.0345,0.12104 0.0676,0.20111 0.66763,0.52373 1.43954,0.77402 2.22266,1.66233 2.68371,3.04418 0.14118,0.42315 0.32271,1.57869 0.32612,2.07596 0.002,0.35315 0.007,0.35978 0.37548,0.5848 1.15125,0.70238 2.20046,1.78314 2.692,2.77294 0.35716,0.71919 0.49227,1.28544 0.55059,2.30748 l 0.0461,0.80722 0.32823,0.18819 c 1.40254,0.80417 2.81179,1.99964 3.60175,3.05538 0.8143,1.08827 1.45958,2.71905 1.58681,4.01029 l 0.0495,0.50239 0.58133,0.4572 c 0.78243,0.61534 1.90322,1.70134 2.41072,2.33586 0.47142,0.58941 0.9393,1.49269 1.10047,2.12451 0.0754,0.2957 0.10691,0.74386 0.10153,1.44495 l -0.008,1.01629 0.36663,0.54817 c 0.49741,0.74369 0.90147,1.5993 1.0742,2.27467 0.1624,0.63498 0.19381,1.76246 0.0644,2.31064 -0.13092,0.5545 -0.67158,1.59097 -1.09229,2.09401 -0.27445,0.32815 -0.4178,0.57261 -0.46854,0.79905 -0.20342,0.90769 -0.66011,1.66248 -1.21959,2.01567 -0.28828,0.18197 -0.97998,0.39637 -1.24544,0.38602 -0.0802,-0.003 -0.33863,-0.0486 -0.57438,-0.10112 z m 0.60094,-2.55565 c 0.0339,-0.0891 0.0984,-0.39914 0.14335,-0.68897 0.0803,-0.51748 0.091,-0.53682 0.59747,-1.07594 0.74807,-0.79635 0.87292,-1.07842 0.87292,-1.9722 0,-0.70142 -0.008,-0.73549 -0.29844,-1.32166 -0.16414,-0.33093 -0.49,-0.86679 -0.72412,-1.19081 -0.50604,-0.70033 -0.54079,-0.85121 -0.52246,-2.26855 0.009,-0.68243 -0.0186,-1.10508 -0.0864,-1.33032 -0.24635,-0.81854 -1.27941,-1.92533 -3.16272,-3.38842 l -0.86489,-0.67191 -0.0488,-0.77075 c -0.18351,-2.90007 -1.40899,-4.51365 -4.85841,-6.39703 l -0.75722,-0.41344 -4.3e-4,-1.12255 c -2.1e-4,-0.6174 -0.0317,-1.3138 -0.07,-1.54755 -0.18696,-1.14167 -0.93467,-1.95241 -2.81338,-3.05053 l -0.77627,-0.45374 0.0116,-0.92946 c 0.0292,-2.34374 -0.32739,-3.03693 -2.03697,-3.95923 -0.46828,-0.25262 -1.13434,-0.63462 -1.48013,-0.84888 -0.72727,-0.45062 -0.70041,-0.30474 -0.29192,-1.58516 0.13162,-0.41258 0.2399,-0.84352 0.24063,-0.95766 0.003,-0.47239 -0.90595,-1.02657 -2.75104,-1.67731 l -0.99832,-0.3521 0.0357,-0.5604 c 0.0196,-0.30823 0.0357,-1.04264 0.0357,-1.63203 0,-0.96769 -0.016,-1.10626 -0.16458,-1.42882 -0.38605,-0.83792 -0.90991,-1.09493 -2.92303,-1.43406 l -0.73005,-0.12298 -0.52017,-0.68573 c -0.56064,-0.73907 -1.48451,-1.72222 -1.61838,-1.72222 -0.0453,0 -0.20021,0.18485 -0.34425,0.41078 -0.40055,0.62829 -1.03073,1.44669 -1.11398,1.44669 -0.0409,0 -0.46298,-0.12538 -0.93794,-0.27863 -1.08998,-0.35168 -1.4708,-0.42032 -1.4708,-0.26509 0,0.24523 0.38099,1.09734 1.01985,2.28098 l 0.67203,1.24508 -0.751,0.34547 c -0.41305,0.19002 -0.84457,0.42422 -0.95894,0.52045 -0.18166,0.15286 -0.20193,0.20699 -0.16042,0.4283 0.12739,0.67903 0.85394,1.69693 2.30669,3.23165 l 0.57283,0.60517 -0.20841,0.8549 c -0.38705,1.58772 -0.35516,2.77388 0.0975,3.62701 0.42484,0.80065 1.1276,1.29417 3.67881,2.58349 0.75639,0.38226 1.37525,0.73693 1.37525,0.78816 0,0.0512 -0.0643,0.46925 -0.14289,0.92892 -0.25152,1.47128 -0.15861,2.51722 0.31078,3.49858 0.67058,1.40198 1.80074,2.35848 4.10966,3.47814 l 1.16986,0.5673 -0.0464,0.30015 c -0.0255,0.16507 -0.0657,0.87881 -0.0893,1.58608 -0.0489,1.46738 0.0425,2.16076 0.40116,3.04204 0.6679,1.64122 1.89238,2.62178 5.19279,4.15833 l 0.72528,0.33766 0.40555,1.26062 c 0.6435,2.00028 1.20834,3.0732 1.99769,3.79462 0.55634,0.50847 0.93807,0.6655 1.79006,0.73634 0.39293,0.0327 0.75218,0.0608 0.79834,0.0625 0.0462,0.002 0.42932,0.56989 0.85147,1.26261 0.90103,1.47851 1.41625,2.15126 1.82233,2.37949 0.26754,0.15037 0.32094,0.15732 0.58997,0.0769 0.1627,-0.0487 0.47145,-0.1772 0.68613,-0.28566 l 0.39032,-0.19719 0.57062,0.35762 c 0.93091,0.58341 1.15073,0.65216 1.25004,0.39097 l 0,0 z"
       id="path4542"
       inkscape:connector-curvature="0" />
    <path
       style="fill:#124191;fill-opacity:1;stroke:#124191;stroke-width:0.17860322;stroke-linecap:round;stroke-miterlimit:4;stroke-opacity:1;stroke-dasharray:none"
       d="m 323.12421,597.25177 c -0.0226,-0.10806 -0.33042,-2.14145 -0.68404,-4.51866 -0.35361,-2.37721 -0.65112,-4.35864 -0.66113,-4.40317 -0.0118,-0.0524 -0.69922,0.10319 -1.94702,0.44063 -1.06086,0.28688 -1.9401,0.51034 -1.95387,0.49657 -0.0138,-0.0138 0.0626,-0.54887 0.16966,-1.18912 0.23474,-1.40348 0.21517,-1.83492 -0.1288,-2.83957 -0.70518,-2.05964 -2.21756,-3.75534 -4.81715,-5.40105 -0.55813,-0.35333 -1.01625,-0.66725 -1.01804,-0.6976 -0.002,-0.0303 0.43715,-0.57687 0.97543,-1.2145 0.53828,-0.63763 1.11636,-1.32284 1.28463,-1.5227 l 0.30595,-0.36337 -3.88393,-2.35049 c -3.25545,-1.97014 -3.86505,-2.36391 -3.76722,-2.43342 0.0642,-0.0456 3.6512,-2.57411 7.97114,-5.6189 l 7.85444,-5.53596 2.29023,0.7859 c 1.25962,0.43224 2.63069,0.90024 3.04681,1.04 l 0.75659,0.2541 1.67242,-1.25449 c 4.88969,-3.66779 9.79297,-6.45624 14.10319,-8.02039 3.42183,-1.24175 6.1328,-1.79472 9.18021,-1.87252 2.95458,-0.0754 4.94119,0.24815 7.76864,1.26538 1.12345,0.40418 1.22888,0.4566 1.19893,0.59609 -0.0181,0.0841 -0.0848,0.60302 -0.14825,1.15312 -0.74353,6.44322 -4.53605,12.67323 -11.46265,18.82985 -2.72646,2.42338 -7.44545,5.75333 -10.62689,7.49887 -0.16699,0.0916 -0.30615,0.20085 -0.30923,0.24273 -0.003,0.0419 -0.12365,1.56196 -0.26791,3.37794 l -0.26229,3.30179 -8.27221,5.0747 c -4.54972,2.79109 -8.28444,5.0747 -8.29938,5.0747 -0.0149,0 -0.0457,-0.0884 -0.0683,-0.19646 z m 8.19264,-7.6015 c 3.3493,-2.05135 6.09687,-3.73387 6.10571,-3.73893 0.019,-0.0108 0.30459,-3.57129 0.30508,-3.8028 2.9e-4,-0.1446 -0.14139,-0.0883 -1.62495,0.64606 -3.52252,1.74356 -6.72609,3.05511 -10.53108,4.31147 -1.1373,0.37552 -1.41747,0.49321 -1.41747,0.5954 0,0.13599 0.75865,5.25572 0.82902,5.59463 0.0281,0.13531 0.075,0.18876 0.14294,0.1627 0.0556,-0.0213 2.84144,-1.71717 6.19075,-3.76853 z m -10.27041,-3.71244 c 0.15717,-0.0434 0.30184,-0.10168 0.32149,-0.1294 0.0196,-0.0277 0.61439,-0.21983 1.32166,-0.42691 4.60681,-1.34877 8.09199,-2.72607 12.85943,-5.08188 3.16403,-1.56349 5.38231,-2.84049 8.10859,-4.66786 3.19687,-2.14281 5.79103,-4.25762 8.28898,-6.75733 4.00409,-4.00694 6.6273,-8.12439 7.7848,-12.21919 0.21947,-0.7764 0.50216,-2.24183 0.44358,-2.29944 -0.0881,-0.0866 -1.30773,-0.41588 -2.19339,-0.5921 -2.3333,-0.46427 -5.17178,-0.42413 -7.89426,0.11162 -5.36584,1.05594 -11.50784,4.09629 -17.85631,8.83904 -1.62661,1.2152 -2.1995,1.68996 -4.36193,3.61479 -4.58955,4.08527 -7.3184,6.72444 -9.72034,9.40091 -1.41934,1.58157 -2.40661,2.72906 -2.43864,2.83439 -0.012,0.0394 0.17325,0.22947 0.41159,0.42248 2.35611,1.90793 3.90713,4.18651 4.36548,6.41326 0.0699,0.33958 0.16004,0.61724 0.2003,0.61702 0.0403,-2.2e-4 0.2018,-0.036 0.35897,-0.0794 l 0,0 z m -3.9002,-12.74526 c 2.04007,-2.24063 6.23656,-6.31742 8.59984,-8.35455 0.49968,-0.43071 0.9085,-0.80186 0.9085,-0.82477 0,-0.0229 -0.77598,-0.30691 -1.72439,-0.63112 l -1.7244,-0.58945 -0.36526,0.25516 c -4.92918,3.44337 -11.46609,8.09028 -11.45078,8.14004 0.0188,0.0609 4.75062,2.96449 4.83791,2.96863 0.0216,10e-4 0.43494,-0.43275 0.91858,-0.96394 l 0,0 z"
       id="path4544"
       inkscape:connector-curvature="0" />
    <path
       style="fill:#124191;fill-opacity:1;stroke:#124191;stroke-width:0.17860322;stroke-linecap:round;stroke-miterlimit:4;stroke-opacity:1;stroke-dasharray:none"
       d="m 344.1577,569.33959 c -2.04236,-0.43778 -3.61024,-1.90517 -4.11437,-3.85067 -0.74219,-2.86419 1.13022,-5.91096 4.16449,-6.77643 0.72535,-0.2069 2.10144,-0.22182 2.80753,-0.0304 3.29924,0.8942 4.89407,4.41509 3.39809,7.50192 -0.6887,1.42107 -2.11213,2.59412 -3.701,3.05 -0.67059,0.1924 -1.91071,0.24368 -2.55474,0.10563 l 0,0 z m 1.85263,-2.43577 c 1.63356,-0.38504 2.77816,-2.03194 2.50448,-3.60353 -0.27277,-1.56637 -1.75367,-2.57681 -3.37027,-2.2996 -2.48449,0.42604 -3.70107,3.31639 -2.12279,5.04329 0.77465,0.84758 1.79505,1.14116 2.98858,0.85984 z"
       id="path4546"
       inkscape:connector-curvature="0" />
  </g>
  <g
     inkscape:groupmode="layer"
     id="layer2"
     inkscape:label="napis"
     style="display:inline"
     transform="translate(-48.407698,-502.36218)">
    <text
       xml:space="preserve"
       style="font-size:40px;font-style:normal;font-weight:normal;line-height:100%;letter-spacing:0px;word-spacing:0px;fill:#000000;fill-opacity:1;stroke:none;display:inline;font-family:Sans"
       x="197.45699"
       y="681.1983"
       id="text3004"
       sodipodi:linespacing="100%"><tspan
         sodipodi:role="line"
         x="197.45699"
         y="681.1983"
         style="font-size:60px;line-height:100%;fill:#444444;fill-opacity:1;font-family:Nokia Pure Headline Extra Bold;-inkscape-font-specification:Nokia Pure Headline Extra Bold"
         id="tspan3012">I<tspan
   style="font-size:60px;letter-spacing:-0.38px"
   id="tspan4299">NNOVATIVE</tspan></tspan><tspan
         sodipodi:role="line"
         x="197.45699"
         y="741.1983"
         style="font-size:60px;line-height:100%;letter-spacing:-0.38px;fill:#0c2c60;fill-opacity:1;stroke:none;font-family:Nokia Pure Headline Extra Bold;-inkscape-font-specification:Nokia Pure Headline Extra Bold"
         id="tspan3016">PROJECTS</tspan></text>
    <path
       sodipodi:type="arc"
       style="fill:#ffffff"
       id="path3099"
       sodipodi:cx="308.60214"
       sodipodi:cy="522.36218"
       sodipodi:rx="20.215054"
       sodipodi:ry="11.075269"
       d="m 328.81412,522.55547 c -0.0399,1.25281 -0.46758,2.49283 -1.26477,3.66724 l -18.94721,-3.86053 z"
       sodipodi:start="0.017453293"
       sodipodi:end="0.35604717" />
  </g>
</svg>
